<svg width="42.486" height="43.293" viewBox="0 0 42.486 43.293" xmlns="http://www.w3.org/2000/svg" xmlns:xlink="http://www.w3.org/1999/xlink" overflow="hidden"><g id="new-product-svgrepo-com" transform="translate(-0.646 -0.173)"><path d="M27.964 24.81C28.9115 24.7589 29.7458 24.1691 30.11 23.293L25.818 23.293C26.1819 24.1695 27.0164 24.7594 27.964 24.81Z" id="Path_29" fill="#FFFFFF" transform="translate(-6.075 -5.621)"/><path d="M28.88 27.293 6.3 27.293 3.264 33.362 25.845 33.362Z" id="Path_30" fill="#FF0073" transform="translate(-0.632 -6.587)"/><path d="M27.371 35.59 7.646 35.59 7.646 46.749C7.63061 48.0507 8.62462 49.1425 9.922 49.249L15.233 49.249 15.233 40.679C15.2333 40.2598 15.5734 39.9203 15.9926 39.9206 16.1097 39.9207 16.2252 39.9479 16.33 40L17.508 40.589 18.686 40C18.8997 39.893 19.1513 39.893 19.365 40L20.543 40.589 21.722 40C22.0965 39.8117 22.5528 39.9626 22.7411 40.3371 22.7944 40.4432 22.8221 40.5603 22.822 40.679L22.822 49.246 30.409 49.246 30.409 30.237 28.05 35.06C27.9322 35.3434 27.6746 35.5445 27.371 35.59Z" id="Path_31" fill="#FF0073" transform="translate(-1.689 -7.297)"/><path d="M23.1 45.708 21.922 45.119 20.745 45.708C20.5313 45.815 20.2797 45.815 20.066 45.708L19.646 45.499 19.646 52.838 24.2 52.838 24.2 45.5 23.78 45.709C23.5659 45.8162 23.3138 45.8158 23.1 45.708Z" id="Path_32" fill="#EE8B26" transform="translate(-4.585 -10.889)"/><path d="M42 35.06 39.644 30.237 39.644 49.246 44.955 49.246C46.2524 49.1395 47.2464 48.0477 47.231 46.746L47.231 35.59 42.681 35.59C42.3771 35.5442 42.119 35.3434 42 35.06Z" id="Path_33" fill="#FF0073" transform="translate(-9.412 -7.297)"/><path d="M22.922 20.362C22.9214 19.9434 23.2604 19.6036 23.679 19.603 23.6797 19.603 23.6803 19.603 23.681 19.603L29.75 19.603C30.1686 19.6024 30.5084 19.9414 30.509 20.36 30.509 20.3607 30.509 20.3613 30.509 20.362 30.4865 21.182 30.2152 21.9758 29.731 22.638L32.785 22.638 32.785 16.347C32.7637 15.1874 31.8064 14.2646 30.6468 14.2859 30.6008 14.2868 30.5548 14.2891 30.509 14.293L22.922 14.293C21.7663 14.1956 20.7505 15.0535 20.6531 16.2092 20.6492 16.2551 20.6468 16.301 20.646 16.347L20.646 22.638 23.7 22.638C23.2162 21.9756 22.9449 21.1819 22.922 20.362ZM28.991 16.347C29.4102 16.347 29.75 16.6868 29.75 17.106 29.75 17.5252 29.4102 17.865 28.991 17.865 28.5718 17.865 28.232 17.5252 28.232 17.106 28.232 16.6868 28.5718 16.347 28.991 16.347ZM24.439 16.347C24.8582 16.347 25.198 16.6868 25.198 17.106 25.198 17.5252 24.8582 17.865 24.439 17.865 24.0198 17.865 23.68 17.5252 23.68 17.106 23.68 16.6868 24.0198 16.347 24.439 16.347Z" id="Path_34" fill="#FF0073" transform="translate(-4.827 -3.449)"/><path d="M46.623 27.293 40.264 27.293 43.3 33.362 50.708 33.362 47.673 27.293Z" id="Path_35" fill="#FF0073" transform="translate(-9.561 -6.587)"/><g id="Group_5" transform="translate(0.646 0)"><path d="M39.258 22.464C39.1146 22.2343 38.8474 22.1129 38.58 22.156L29.48 22.156 29.48 15.865C29.4587 13.8686 27.823 12.2675 25.8266 12.2888 25.78 12.2893 25.7335 12.2907 25.687 12.293L18.1 12.293C16.1061 12.1907 14.4068 13.7242 14.3045 15.7181 14.302 15.767 14.3005 15.816 14.3 15.865L14.3 22.156 5.2 22.156C4.93235 22.113 4.66495 22.2343 4.521 22.464L0.727 29.995C0.609491 30.2589 0.621692 30.5624 0.76 30.816 0.889773 31.0607 1.13102 31.2265 1.406 31.26L4.44 31.26 4.44 42.418C4.42605 44.5558 6.0979 46.3255 8.233 46.433L35.546 46.433C37.6811 46.3255 39.3529 44.5558 39.339 42.418L39.339 31.26 42.374 31.26C42.652 31.2148 42.8919 31.0399 43.02 30.789 43.1581 30.5653 43.1705 30.2861 43.053 30.051ZM15.819 15.864C15.8401 14.7044 16.7972 13.7814 17.9568 13.8025 18.0046 13.8034 18.0524 13.8059 18.1 13.81L25.687 13.81C26.8427 13.7126 27.8585 14.5705 27.9559 15.7262 27.9598 15.7721 27.9622 15.818 27.963 15.864L27.963 22.155 24.9 22.155C25.3842 21.4928 25.6555 20.699 25.678 19.879 25.6786 19.4604 25.3396 19.1206 24.921 19.12 24.9203 19.12 24.9197 19.12 24.919 19.12L18.854 19.12C18.4354 19.1194 18.0956 19.4584 18.095 19.877 18.095 19.8777 18.095 19.8783 18.095 19.879 18.1175 20.699 18.3888 21.4928 18.873 22.155L15.819 22.155ZM19.742 20.638 24.034 20.638C23.6698 21.5142 22.8355 22.1039 21.888 22.155 20.9409 22.1035 20.1071 21.5138 19.743 20.638ZM5.667 23.673 28.248 23.673 25.213 29.742 2.632 29.742ZM5.957 42.418 5.957 31.26 25.682 31.26C25.9851 31.214 26.2422 31.013 26.36 30.73L28.716 25.907 28.716 44.916 21.13 44.916 21.13 36.349C21.1305 35.9298 20.7911 35.5896 20.3719 35.5891 20.2532 35.5889 20.1361 35.6167 20.03 35.67L18.852 36.259 17.674 35.67C17.4603 35.563 17.2087 35.563 16.995 35.67L15.818 36.259 14.64 35.67C14.2655 35.4817 13.8092 35.6326 13.6209 36.0071 13.5676 36.1132 13.5399 36.2303 13.54 36.349L13.54 44.916 8.233 44.916C6.9364 44.8095 5.94267 43.7189 5.957 42.418ZM15.057 44.918 15.057 37.576 15.477 37.785C15.6907 37.892 15.9423 37.892 16.156 37.785L17.333 37.196 18.511 37.785C18.7247 37.892 18.9763 37.892 19.19 37.785L19.609 37.576 19.609 44.915ZM37.817 42.418C37.8324 43.7197 36.8384 44.8115 35.541 44.918L30.234 44.918 30.234 25.907 32.59 30.73C32.7085 31.0129 32.9658 31.2137 33.269 31.26L37.821 31.26ZM33.738 29.742 30.7 23.673 38.108 23.673 41.143 29.742Z" id="Path_36" transform="translate(-0.646 -2.967)"/><ellipse cx="1" cy="0.5" rx="1" ry="0.5" id="Ellipse_9" transform="translate(18 13.173)"/><circle cx="0.5" cy="0.5" r="0.5" id="Ellipse_10" transform="translate(23 13.173)"/><path d="M6.715 20.809 8.233 20.809C8.37277 16.6383 5.10504 13.1439 0.934322 13.0042 0.83825 13.0009 0.742125 12.9996 0.646 13L0.646 14.517C3.95552 14.4709 6.6758 17.1164 6.72191 20.4259 6.72369 20.5537 6.72139 20.6814 6.715 20.809Z" id="Path_37" transform="translate(-0.646 -3.138)"/><path d="M9.991 11.085 11.508 11.085C11.7344 5.74534 7.58929 1.23315 2.24963 1.00675 2.04854 0.998222 1.84723 0.995972 1.646 1L1.646 2.517C6.247 2.517 9.991 5.774 9.991 11.085Z" id="Path_38" transform="translate(-0.887 -0.241)"/><path d="M21.957 8.051 23.474 8.051C23.4976 4.23354 20.4622 1.09904 16.646 1L16.646 2.518C19.6365 2.58848 22.009 5.06016 21.957 8.051Z" id="Path_39" transform="translate(-4.507 -0.242)"/><path d="M46.646 20.809 48.163 20.809C47.9981 17.5033 50.5442 14.6898 53.85 14.5249 53.9772 14.5185 54.1046 14.5162 54.232 14.518L54.232 13C50.059 12.9811 46.6607 16.3487 46.6418 20.5217 46.6414 20.6175 46.6428 20.7133 46.646 20.809Z" id="Path_40" transform="translate(-11.747 -3.138)"/><path d="M52.509 2.517 52.509 1C47.1662 0.8919 42.7473 5.13547 42.6392 10.4783 42.6352 10.6805 42.6374 10.8829 42.646 11.085L44.163 11.085C44.163 5.774 47.908 2.517 52.509 2.517Z" id="Path_41" transform="translate(-10.782 -0.241)"/><path d="M38.474 2.517 38.474 1C34.6584 1.09956 31.6235 4.23315 31.646 8.05L33.163 8.05C33.1121 5.0596 35.484 2.58856 38.474 2.517Z" id="Path_42" transform="translate(-8.127 -0.241)"/><rect x="0" y="0" width="2" height="1" id="Rectangle_6" transform="translate(9 12.173)"/><rect x="0" y="0" width="2" height="2" id="Rectangle_7" transform="translate(9 15.173)"/><rect x="0" y="0" width="1" height="1" id="Rectangle_8" transform="translate(32 12.173)"/><rect x="0" y="0" width="1" height="2" id="Rectangle_9" transform="translate(32 15.173)"/><rect x="0" y="0" width="2" height="1" id="Rectangle_10" transform="translate(9 1.173)"/><rect x="0" y="0" width="1" height="1" id="Rectangle_11" transform="translate(32 1.173)"/><rect x="0" y="0" width="2" height="1" id="Rectangle_12" transform="translate(20 6.173)"/><rect x="0" y="0" width="2" height="1" id="Rectangle_13" transform="translate(20 3.173)"/><rect x="0" y="0" width="2" height="1" id="Rectangle_14" transform="translate(20 0.173)"/><rect x="0" y="0" width="1" height="1" id="Rectangle_15" transform="translate(13 6.173)"/><rect x="0" y="0" width="2" height="1" id="Rectangle_16" transform="translate(28 6.173)"/></g></g></svg>