<svg width="132" height="50.116" viewBox="0 0 132 50.116" xmlns="http://www.w3.org/2000/svg" xmlns:xlink="http://www.w3.org/1999/xlink" id="Component_1_1" overflow="hidden"><g id="Rectangle_4" stroke="#FF0073" fill="#E3EAF8"><rect x="0" y="0" rx="14.5" width="29" height="49" stroke="none"/><rect x="0.5" y="0.5" rx="14" width="28" height="48" fill="none"/></g><rect x="0" y="0" rx="1.5" width="3" height="7" id="Rectangle_5" fill="#FF0073" transform="translate(13 9)"/><text id="Scroll_down" fill="#FF0073" font-family="Montserrat-Bold,Montserrat" font-weight="700" font-size="12" transform="translate(37 28)"><tspan x="0" y="0">Scroll down</tspan></text><circle cx="2" cy="2" r="2" id="Ellipse_5" fill="#FF0073" transform="translate(118 23)"/><circle cx="2" cy="2" r="2" id="Ellipse_6" fill="#FF0073" transform="translate(123 23)"/><circle cx="2" cy="2" r="2" id="Ellipse_7" fill="#FF0073" transform="translate(128 23)"/><path d="M15.116 8.669 9.448 3 9.448 7.409 0 7.409 0 9.928 9.448 9.928 9.448 14.337Z" id="iconmonstr-arrow-8" fill="#FF0073" transform="matrix(6.12323e-17 1 -1 6.12323e-17 82.669 35)"/></svg>