<svg width="41.487" height="42.543" viewBox="0 0 41.487 42.543" xmlns="http://www.w3.org/2000/svg" xmlns:xlink="http://www.w3.org/1999/xlink" overflow="hidden"><g id="customer-service-help-svgrepo-com" transform="translate(-6.356 0)"><path d="M422.611 152.249C422.529 152.249 422.447 152.241 422.367 152.225 422.287 152.209 422.209 152.185 422.133 152.154 422.057 152.123 421.985 152.084 421.917 152.039 421.849 151.993 421.785 151.941 421.727 151.883 421.493 151.648 421.361 151.33 421.36 150.998 421.36 150.916 421.369 150.834 421.385 150.754 421.417 150.593 421.481 150.441 421.571 150.304 421.661 150.167 421.779 150.049 421.916 149.959 421.984 149.914 422.056 149.875 422.132 149.844 422.207 149.813 422.286 149.789 422.366 149.773 422.527 149.741 422.694 149.741 422.855 149.773 422.935 149.789 423.013 149.813 423.089 149.844 423.164 149.875 423.236 149.914 423.304 149.959 423.372 150.004 423.436 150.056 423.494 150.114 423.611 150.23 423.703 150.369 423.765 150.521 423.796 150.596 423.82 150.675 423.836 150.755 423.852 150.835 423.86 150.917 423.86 150.999 423.859 151.331 423.727 151.649 423.493 151.884 423.435 151.942 423.371 151.994 423.303 152.04 423.235 152.085 423.163 152.124 423.088 152.155 423.012 152.186 422.934 152.21 422.854 152.226 422.774 152.242 422.693 152.249 422.611 152.249Z" id="Path_2" transform="translate(-380.52 -137.305)"/><path d="M122.745 222.758 122.745 222.758C121.04 222.758 119.657 221.375 119.657 219.67L119.657 208.1C119.657 206.395 121.04 205.012 122.745 205.012L122.745 205.012C124.45 205.012 125.833 206.395 125.833 208.1L125.833 219.67C125.833 221.375 124.45 222.758 122.745 222.758Z" id="Path_3" fill="#FF0073" transform="translate(-103.887 -187.98)"/><path d="M29.577 252.166 29.577 240.6C29.577 240.552 29.577 240.5 29.577 240.457L27.337 240.457C24.0636 240.457 21.41 243.111 21.41 246.384L21.41 246.384C21.41 249.657 24.0636 252.311 27.337 252.311L29.577 252.311C29.579 252.262 29.577 252.214 29.577 252.166Z" id="Path_4" fill="#FF0073" transform="translate(-13.807 -220.476)"/><path d="M321.1 205.017 321.1 205.017C322.805 205.017 324.188 206.4 324.188 208.105L324.188 219.671C324.188 221.376 322.805 222.759 321.1 222.759L321.1 222.759C319.395 222.759 318.012 221.376 318.012 219.671L318.012 208.105C318.012 206.4 319.395 205.017 321.1 205.017Z" id="Path_5" fill="#FF0073" transform="translate(-285.755 -187.982)"/><path d="M394.54 240.456 392.3 240.456C392.3 240.504 392.3 240.556 392.3 240.599L392.3 252.165C392.3 252.213 392.3 252.265 392.3 252.308L394.54 252.308C397.813 252.308 400.467 249.654 400.467 246.381L400.467 246.381C400.466 243.108 397.813 240.456 394.54 240.456Z" id="Path_6" fill="#FF0073" transform="translate(-353.875 -220.476)"/><path d="M218.985 442.771 216.856 442.771C215.501 442.772 214.402 441.673 214.401 440.318 214.401 440.317 214.401 440.317 214.401 440.316L214.401 440.316C214.4 438.961 215.499 437.862 216.854 437.861 216.855 437.861 216.855 437.861 216.856 437.861L218.985 437.861C220.34 437.86 221.439 438.959 221.44 440.314 221.44 440.315 221.44 440.315 221.44 440.316L221.44 440.316C221.441 441.671 220.342 442.77 218.987 442.771 218.986 442.771 218.986 442.771 218.985 442.771Z" id="Path_7" fill="#FF5050" transform="translate(-190.759 -401.479)"/><path d="M23.2 20.124C23.2006 17.7276 21.2584 15.7845 18.8621 15.7839 17.0025 15.7835 15.3494 16.968 14.752 18.729L13.534 18.729C13.389 18.729 13.245 18.735 13.101 18.743L13.101 16.5C13.1014 8.76801 19.3698 2.50033 27.1017 2.50074 32.0109 2.501 36.5613 5.07258 39.094 9.278 39.269 9.567 39.435 9.867 39.589 10.17 39.9019 10.7861 40.6549 11.0319 41.271 10.719 41.8871 10.4061 42.1329 9.65307 41.82 9.037 41.639 8.681 41.443 8.327 41.237 7.986 36.5379 0.17835 26.3991-2.3416 18.5915 2.35754 13.6309 5.34312 10.5981 10.7103 10.6 16.5L10.6 19.358C6.98253 20.9769 5.36238 25.2218 6.98129 28.8393 8.13752 31.4229 10.7045 33.0855 13.535 33.084L14.752 33.084C15.5218 35.3533 17.9856 36.5689 20.2549 35.7991 22.0156 35.2018 23.2 33.5492 23.2 31.69L23.2 20.124ZM8.858 25.907C8.86076 23.3257 10.9527 21.2338 13.534 21.231L14.519 21.231 14.519 30.582 13.534 30.582C10.953 30.5792 8.86131 28.488 8.858 25.907ZM20.7 31.69C20.7 32.7045 19.8775 33.527 18.863 33.527 17.8485 33.527 17.026 32.7045 17.026 31.69L17.026 31.69 17.026 20.124C17.026 19.1095 17.8485 18.287 18.863 18.287 19.8775 18.287 20.7 19.1095 20.7 20.124Z" id="Path_8"/><path d="M224.8 200.08C224.797 197.253 223.136 194.69 220.557 193.532L220.557 191.925C220.585 191.235 220.047 190.653 219.357 190.625 218.667 190.597 218.085 191.135 218.057 191.825 218.056 191.858 218.056 191.892 218.057 191.925L218.057 192.916C217.914 192.908 217.77 192.902 217.624 192.902L216.4 192.902C215.63 190.633 213.166 189.417 210.897 190.187 209.136 190.784 207.952 192.437 207.952 194.297L207.952 205.863C207.951 208.259 209.894 210.202 212.29 210.203 214.149 210.204 215.803 209.019 216.4 207.258L217.617 207.258C217.962 207.258 218.307 207.233 218.648 207.183L218.648 211.783 208.672 211.783C208.148 210.303 206.749 209.312 205.178 209.31L203.049 209.31C201.003 209.276 199.316 210.908 199.283 212.955 199.249 215.001 200.881 216.687 202.927 216.721 202.968 216.722 203.008 216.722 203.049 216.721L205.178 216.721C206.735 216.719 208.125 215.747 208.66 214.285L219.9 214.285C220.591 214.285 221.151 213.725 221.151 213.034L221.151 206.329C223.405 205.056 224.799 202.668 224.8 200.08ZM205.183 214.214 203.097 214.214C202.453 214.222 201.912 213.734 201.854 213.093 201.807 212.432 202.304 211.858 202.965 211.81 202.995 211.808 203.024 211.807 203.054 211.807L205.183 211.807C205.666 211.808 206.102 212.097 206.291 212.542 206.351 212.692 206.38 212.853 206.375 213.014 206.375 213.019 206.375 213.025 206.375 213.03 206.377 213.166 206.354 213.302 206.309 213.43 206.134 213.903 205.683 214.216 205.179 214.214ZM212.297 207.7C211.283 207.699 210.461 206.877 210.46 205.863L210.46 194.3C210.46 193.285 211.282 192.463 212.297 192.463 213.312 192.463 214.134 193.285 214.134 194.3L214.134 205.866 214.134 205.866C214.131 206.88 213.307 207.701 212.293 207.7ZM217.622 204.755 216.636 204.755 216.636 195.4 217.622 195.4C220.204 195.4 222.298 197.493 222.298 200.076 222.298 202.658 220.204 204.751 217.622 204.751Z" id="Path_9" transform="translate(-176.953 -174.173)"/></g></svg>