<svg width="49.36" height="49.36" viewBox="0 0 49.36 49.36" xmlns="http://www.w3.org/2000/svg" xmlns:xlink="http://www.w3.org/1999/xlink" id="customer-service2" overflow="hidden"><g id="Group_1" transform="translate(24.68 11.063)"><path d="M260.177 123.552C261.729 122.621 263.66 121.462 263.66 118.587 263.694 116.472 262.007 114.73 259.892 114.696 257.777 114.661 256.035 116.348 256.001 118.463 256 118.504 256 118.546 256.001 118.587 255.978 119.056 256.34 119.455 256.81 119.478 257.279 119.501 257.678 119.139 257.701 118.669 257.702 118.642 257.702 118.614 257.701 118.587 257.726 117.412 258.7 116.48 259.875 116.506 261.014 116.53 261.931 117.448 261.956 118.587 261.956 120.405 260.946 121.104 259.299 122.092 257.828 122.975 255.999 124.073 255.999 126.672 255.999 127.142 256.38 127.523 256.85 127.523L262.807 127.523C263.276 127.5 263.639 127.101 263.616 126.632 263.595 126.194 263.245 125.844 262.807 125.823L257.816 125.823C258.112 124.842 258.956 124.285 260.177 123.552Z" id="Path_10" fill="#FF6464" transform="translate(-256 -114.758)"/><path d="M351.933 123.266 351.082 123.266 351.082 115.607C351.105 115.138 350.743 114.739 350.273 114.716 349.804 114.693 349.405 115.055 349.382 115.525 349.381 115.552 349.381 115.58 349.382 115.607L349.382 123.266 346.165 123.266 347.665 115.774C347.757 115.313 347.458 114.865 346.997 114.772 346.537 114.68 346.088 114.979 345.996 115.44L344.296 123.95C344.204 124.411 344.503 124.859 344.963 124.951 345.019 124.962 345.075 124.968 345.131 124.968L349.386 124.968 349.386 126.668C349.363 127.137 349.725 127.536 350.195 127.559 350.664 127.582 351.063 127.22 351.086 126.75 351.087 126.723 351.087 126.695 351.086 126.668L351.086 124.968 351.937 124.968C352.406 124.945 352.769 124.546 352.746 124.077 352.725 123.639 352.375 123.289 351.937 123.268Z" id="Path_11" fill="#FF6464" transform="translate(-335.763 -114.756)"/></g><path d="M46.374 114.759C40.2635 114.759 35.31 119.713 35.31 125.823L35.31 145.4 57.437 145.4 57.437 125.822C57.437 119.712 52.4839 114.759 46.374 114.759Z" id="Path_12" fill="#5A4146" transform="translate(-31.906 -103.695)"/><path d="M210.983 17.021C210.982 7.61946 203.359-0.000876394 193.957 0.000509529 187.694 0.00143288 181.937 3.44204 178.969 8.958 178.746 9.37221 178.901 9.88865 179.315 10.1115 179.73 10.3343 180.246 10.1792 180.469 9.765 184.475 2.3126 193.764-0.481045 201.217 3.52523 208.669 7.5315 211.463 16.8206 207.457 24.273 204.787 29.2385 199.606 32.3367 193.969 32.339 193.806 32.339 193.643 32.339 193.479 32.33L194.571 31.238C194.877 30.8813 194.836 30.3441 194.479 30.038 194.161 29.7644 193.69 29.7644 193.371 30.038L190.818 32.591C190.488 32.9229 190.488 33.4591 190.818 33.791L193.371 36.344C193.728 36.6501 194.265 36.609 194.571 36.2523 194.845 35.9335 194.845 35.4628 194.571 35.144L193.463 34.036C193.632 34.036 193.801 34.044 193.97 34.044 203.364 34.0291 210.974 26.4148 210.983 17.021Z" id="Path_13" fill="#E4EAF6" transform="translate(-161.623 0)"/><path d="M27.364 369.933 19.77 366.769C19.1356 366.505 18.7224 365.885 18.723 365.198L18.723 363.035 10.213 363.035 10.213 365.2C10.2136 365.887 9.80043 366.507 9.166 366.771L1.572 369.935C0.620813 370.331 0.000807189 371.26 2.67029e-08 372.29L0 375.69C6.21725e-15 376.629 0.761116 377.39 1.7 377.39L27.233 377.39C28.1719 377.39 28.933 376.629 28.933 375.69L28.933 372.29C28.9335 371.26 28.3147 370.33 27.364 369.933Z" id="Path_14" fill="#E6AF78" transform="matrix(1 0 0 1 0 -328.036)"/><path d="M27.364 410.628 21.228 408.071C19.243 411.805 14.6068 413.223 10.8728 411.238 9.52517 410.521 8.4224 409.419 7.706 408.071L1.57 410.628C0.619261 411.025 6.71886e-05 411.954 5.24521e-08 412.984L0 416.384C6.21725e-15 417.323 0.761116 418.084 1.7 418.084L27.233 418.084C28.1719 418.084 28.933 417.323 28.933 416.384L28.933 412.984C28.9331 411.954 28.3143 411.025 27.364 410.628Z" id="Path_15" fill="#E4EAF6" transform="matrix(1 0 0 1 0 -368.73)"/><g id="Group_2" transform="matrix(1 0 0 1 0 39.996)"><path d="M1.571 416.767C0.619533 417.163-0.000168243 418.093-2.00272e-08 419.124L0 422.524C6.21725e-15 423.463 0.761116 424.224 1.7 424.224L10.21 424.224C8.51627 421.259 7.14895 418.12 6.132 414.86Z" id="Path_16" fill="#FF0073" transform="matrix(1 0 0 1 0 -414.866)"/><path d="M202.848 416.767C203.799 417.163 204.419 418.093 204.419 419.124L204.419 422.524C204.419 423.463 203.658 424.224 202.719 424.224L194.209 424.224C195.903 421.259 197.27 418.12 198.287 414.86Z" id="Path_17" fill="#FF0073" transform="translate(-175.484 -414.866)"/></g><path d="M93.508 363.034 85 363.034 85 365.2C85.0006 365.887 84.5874 366.507 83.953 366.771L82.767 367.265C91.84 369.577 93.508 363.034 93.508 363.034Z" id="Path_18" fill="#D29B6E" transform="translate(-74.785 -328.035)"/><path d="M4.148 443.271 0.732 440.554C0.264103 441.029 0.00128228 441.669-6.67572e-09 442.336L0 445.736C6.21725e-15 446.675 0.761116 447.436 1.7 447.436L5.1 447.436 5.1 445.259C5.09981 444.486 4.74979 443.755 4.148 443.271Z" id="Path_19" fill="#FF0073" transform="matrix(1 0 0 1 0 -398.082)"/><path d="M70.817 207.083C68.888 209.1 66.416 210.515 63.7 211.157 63.2808 211.249 62.9941 211.636 63.029 212.064L63.595 218.286C63.6965 219.408 64.347 220.407 65.332 220.953L69.764 223.415C70.7918 223.987 72.0422 223.987 73.07 223.415L77.502 220.953C78.487 220.407 79.1375 219.408 79.239 218.286L79.805 212.064C79.8395 211.636 79.5529 211.249 79.134 211.157 76.418 210.515 73.946 209.1 72.017 207.083 71.6971 206.752 71.1691 206.742 70.8377 207.062 70.8307 207.069 70.8238 207.076 70.817 207.083Z" id="Path_20" fill="#F0C087" transform="translate(-56.949 -186.889)"/><path d="M72.014 207.075C71.6941 206.744 71.1661 206.734 70.8347 207.054 70.8277 207.061 70.8208 207.068 70.814 207.075 68.873 209.075 66.4073 210.488 63.7 211.15 63.282 211.243 62.9964 211.629 63.031 212.056L63.597 218.28C63.6981 219.402 64.3487 220.401 65.334 220.948L69.766 223.41C70.1292 223.611 70.5261 223.743 70.937 223.801L69.652 221.488C69.134 220.555 68.8165 219.525 68.72 218.462L68.164 212.348C68.1036 211.714 68.4062 211.1 68.946 210.762 69.8308 210.217 70.6596 209.585 71.42 208.877 73.6884 210.995 76.517 212.418 79.57 212.977L79.623 212.987 79.677 212.993 79.722 212.998 79.808 212.054C79.8425 211.626 79.5559 211.239 79.137 211.147 76.4191 210.506 73.9451 209.092 72.014 207.075Z" id="Path_21" fill="#E6AF78" transform="translate(-56.947 -186.882)"/><path d="M78.729 408.071C76.744 411.805 72.1078 413.223 68.3738 411.238 67.0262 410.521 65.9234 409.419 65.207 408.071L63.635 408.726C65.9776 413.328 71.6073 415.159 76.2092 412.817 77.971 411.92 79.4032 410.488 80.3 408.726Z" id="Path_22" fill="#FF0073" transform="translate(-57.5 -368.73)"/><path d="M166.492 307.552C166.45 307.697 165.383 311.092 158.892 311.092L158.892 312.792C166.764 312.792 168.078 308.192 168.13 307.992Z" id="Path_23" fill="#464655" transform="translate(-143.577 -277.902)"/><circle cx="0.851" cy="0.851" r="0.851" id="Ellipse_8" fill="#5B5D6E" transform="translate(14.468 33.19)"/><g id="Group_3" transform="translate(4.255 25.531)"><path d="M233.394 264.828 232.388 264.828 231.924 269.934 233.394 269.934C233.864 269.934 234.245 269.553 234.245 269.083L234.245 265.683C234.247 265.213 233.868 264.83 233.398 264.828 233.397 264.828 233.395 264.828 233.394 264.828Z" id="Path_24" fill="#707487" transform="translate(-213.82 -264.828)"/><path d="M45.995 264.828 44.989 264.828C44.519 264.828 44.138 265.209 44.138 265.679L44.138 269.079C44.138 269.549 44.519 269.93 44.989 269.93L46.459 269.93Z" id="Path_25" fill="#707487" transform="translate(-44.138 -264.828)"/></g><g id="Group_4" transform="translate(5.172 39.74)"><path d="M53.652 412.863C54.6866 415.916 55.8912 418.908 57.26 421.826L59.152 421.826C57.6467 418.703 56.3369 415.49 55.23 412.205Z" id="Path_26" fill="#C04B50" transform="translate(-53.652 -412.206)"/><path d="M248.13 443.271 251.546 440.554C252.014 441.029 252.277 441.669 252.278 442.336L252.278 445.736C252.278 446.675 251.517 447.436 250.578 447.436L247.178 447.436 247.178 445.259C247.178 444.486 247.528 443.755 248.13 443.271Z" id="Path_27" fill="#FF0073" transform="translate(-228.515 -437.821)"/><path d="M194.943 412.863C193.908 415.916 192.704 418.908 191.335 421.826L189.443 421.826C190.948 418.703 192.258 415.49 193.365 412.205Z" id="Path_28" fill="#C04B50" transform="translate(-176.353 -412.206)"/></g></svg>