<svg width="48.732" height="49.6" viewBox="0 0 48.732 49.6" xmlns="http://www.w3.org/2000/svg" xmlns:xlink="http://www.w3.org/1999/xlink" overflow="hidden"><g id="update-svgrepo-com" transform="translate(-4.482 0)"><path d="M48.752 10.45C40.9628-0.645869 25.6534-3.32643 14.5575 4.4628 9.22909 8.20331 5.60483 13.9073 4.482 20.32L11.025 21.466C12.7421 11.7405 22.0182 5.24832 31.7437 6.96539 41.4692 8.68247 47.9614 17.9585 46.2443 27.6841 44.5272 37.4096 35.2511 43.9018 25.5256 42.1847 24.0546 41.925 22.6219 41.482 21.261 40.866L23.941 37.446 9.533 35.965 14.412 49.6 17.076 46.2C29.0311 52.5962 43.9077 48.0898 50.3039 36.1347 54.6742 27.9661 54.0741 18.033 48.752 10.45Z" id="Path_43" fill="#FF0073"/><g id="Group_6" opacity="0.1" transform="translate(4.482 0)"><path d="M17.879 5.57C23.2001 1.81303 29.803 0.340993 36.216 1.482 36.8593 1.59467 37.4927 1.73167 38.116 1.893 36.4364 1.19672 34.6851 0.687651 32.894 0.375 19.5407-1.96271 6.82044 6.9668 4.482 20.32L7.899 20.92C9.10479 14.7009 12.6842 9.19554 17.879 5.57Z" id="Path_44" transform="translate(-4.482 0)"/></g><path d="M240.469 144.574 225.077 144.574 225.077 129.182 229.505 129.182 229.505 140.146 240.469 140.146Z" id="Path_45" fill="#FF0073" transform="translate(-199.225 -116.667)"/></g></svg>